<svg width="40.000000" height="40.000000" viewBox="0 0 40 40" fill="none" xmlns="http://www.w3.org/2000/svg" xmlns:xlink="http://www.w3.org/1999/xlink">
	<desc>
			Created with Pixso.
	</desc>
	<defs>
		<clipPath id="clip2_1325">
			<rect id="ShoppingCartSimple" rx="0.000000" width="15.875000" height="15.875000" transform="translate(12.062500 12.062500)" fill="white" fill-opacity="0"/>
		</clipPath>
	</defs>
	<g clip-path="url(#clip2_1325)">
		<path id="Vector" d="M18 26.66C17.63 26.66 17.33 26.36 17.33 26C17.33 25.63 17.63 25.33 18 25.33C18.36 25.33 18.66 25.63 18.66 26C18.66 26.36 18.36 26.66 18 26.66Z" stroke="#262626" stroke-opacity="1.000000" stroke-width="2.000000" stroke-linejoin="round"/>
		<path id="Vector" d="M25.33 26.66C24.96 26.66 24.66 26.36 24.66 26C24.66 25.63 24.96 25.33 25.33 25.33C25.7 25.33 25.99 25.63 25.99 26C25.99 26.36 25.7 26.66 25.33 26.66Z" stroke="#262626" stroke-opacity="1.000000" stroke-width="2.000000" stroke-linejoin="round"/>
		<path id="Vector" d="M12.66 12.66L15.33 12.66L17.11 21.59C17.18 21.9 17.34 22.17 17.59 22.37C17.83 22.56 18.14 22.67 18.45 22.66L24.93 22.66C25.24 22.67 25.55 22.56 25.79 22.37C26.03 22.17 26.2 21.9 26.26 21.59L27.33 16L15.99 16" stroke="#262626" stroke-opacity="1.000000" stroke-width="2.000000" stroke-linejoin="round" stroke-linecap="round"/>
	</g>
</svg>
