<svg width="40.000000" height="40.000000" viewBox="0 0 40 40" fill="none" xmlns="http://www.w3.org/2000/svg" xmlns:xlink="http://www.w3.org/1999/xlink">
	<desc>
			Created with Pixso.
	</desc>
	<defs>
		<clipPath id="clip2_1319">
			<rect id="User" rx="0.000000" width="15.875000" height="15.875000" transform="translate(12.062500 12.062500)" fill="white" fill-opacity="0"/>
		</clipPath>
	</defs>
	<g clip-path="url(#clip2_1319)">
		<path id="Vector" d="M25.33 26L25.33 24.66C25.33 23.95 25.05 23.28 24.55 22.78C24.05 22.28 23.37 22 22.66 22L17.33 22C16.62 22 15.94 22.28 15.44 22.78C14.94 23.28 14.66 23.95 14.66 24.66L14.66 26" stroke="#262626" stroke-opacity="1.000000" stroke-width="2.000000" stroke-linejoin="round" stroke-linecap="round"/>
		<path id="Vector" d="M20 19.33C18.52 19.33 17.33 18.13 17.33 16.66C17.33 15.19 18.52 14 20 14C21.47 14 22.66 15.19 22.66 16.66C22.66 18.13 21.47 19.33 20 19.33Z" stroke="#262626" stroke-opacity="1.000000" stroke-width="2.000000" stroke-linejoin="round"/>
	</g>
</svg>
